<?xml version="1.0" standalone="no"?>
<!DOCTYPE svg PUBLIC "-//W3C//DTD SVG 20010904//EN"
 "http://www.w3.org/TR/2001/REC-SVG-20010904/DTD/svg10.dtd">
<svg version="1.0" xmlns="http://www.w3.org/2000/svg"
 width="176.000000pt" height="176.000000pt" viewBox="0 0 176.000000 176.000000"
 preserveAspectRatio="xMidYMid meet">
<metadata>
Created by potrace 1.16, written by Peter Selinger 2001-2019
</metadata>
<g transform="translate(0.000000,176.000000) scale(0.100000,-0.100000)"
fill="#000000" stroke="none">
<path d="M782 1625 c-61 -28 -188 -114 -221 -149 -21 -23 -21 -23 -3 -46 14
-18 25 -22 45 -16 27 6 105 75 123 107 5 9 20 20 33 24 l24 7 -20 -25 c-11
-15 -47 -49 -81 -77 -63 -52 -102 -115 -102 -163 0 -26 -68 -188 -98 -234 -24
-38 1 -26 50 25 26 26 54 64 62 84 9 20 21 40 27 43 6 4 19 26 29 49 22 49 26
26 5 -33 -23 -65 -71 -128 -147 -189 -111 -91 -142 -178 -118 -338 17 -112 19
-114 69 -55 24 28 48 51 53 51 24 0 90 -87 132 -174 24 -50 55 -135 70 -188
23 -89 73 -205 109 -252 13 -18 16 -14 31 55 30 136 91 232 180 284 88 52 126
117 125 212 -1 108 -11 105 -58 -13 -57 -143 -78 -177 -104 -170 -13 3 -31 -4
-49 -20 -16 -13 -37 -24 -46 -24 -37 0 -81 41 -130 122 -28 45 -78 119 -112
163 -33 44 -75 109 -93 145 -33 63 -34 66 -23 128 l11 62 62 30 c61 28 63 29
73 10 14 -26 36 -25 50 1 11 19 14 18 75 -35 39 -34 72 -56 87 -56 12 0 46 14
73 30 63 37 94 38 127 3 33 -35 52 -74 71 -143 28 -103 29 -118 4 -135 -17
-12 -18 -15 -4 -15 9 0 24 -15 33 -32 17 -33 16 -33 -3 -16 -11 10 -22 18 -24
18 -3 0 -3 -27 -1 -59 6 -79 -24 -142 -112 -241 -37 -41 -76 -92 -87 -112 -20
-39 -26 -88 -10 -88 5 0 51 42 103 92 122 120 153 179 153 290 0 43 1 78 2 78
1 0 10 -26 19 -57 14 -47 72 -139 81 -129 2 1 -4 22 -12 47 -18 57 -38 293
-25 297 18 7 10 66 -24 177 -19 60 -47 164 -61 230 -38 166 -71 234 -159 319
-74 71 -157 126 -191 126 -11 0 -44 -11 -73 -25z m-111 -1030 c30 -53 67 -112
82 -131 33 -39 93 -73 134 -75 25 -1 24 -2 -7 -8 -32 -6 -35 -9 -42 -51 -16
-98 -18 -100 -37 -39 -10 31 -41 96 -68 145 -68 121 -143 262 -143 270 0 19
33 -26 81 -111z"/>
<path d="M634 948 c-5 -17 1 -28 25 -50 17 -15 31 -29 31 -31 0 -2 -14 -2 -30
1 -28 4 -60 -11 -60 -28 0 -4 10 -19 23 -33 20 -24 30 -27 87 -27 50 0 61 -3
52 -12 -7 -7 -12 -25 -12 -41 0 -16 -4 -26 -10 -22 -5 3 -10 19 -10 36 0 19
-5 29 -15 29 -17 0 -20 -25 -5 -35 6 -3 10 -17 10 -31 0 -13 9 -33 20 -44 25
-25 30 -25 31 -2 1 11 3 9 8 -7 9 -35 27 -37 39 -4 l10 28 1 -32 c1 -17 6 -35
13 -39 7 -5 9 -1 6 13 -8 28 8 54 21 34 5 -8 7 -20 4 -28 -3 -7 -1 -19 4 -26
6 -6 13 -21 17 -32 5 -16 2 -15 -14 5 -13 17 -20 20 -20 10 0 -13 -1 -13 -11
0 -8 11 -12 12 -15 3 -4 -9 -12 -7 -27 7 -11 11 -24 20 -29 20 -13 0 -9 -20 6
-26 10 -4 12 -16 9 -42 -3 -22 1 -44 9 -54 11 -15 19 -16 55 -7 32 9 55 8 89
0 26 -7 50 -8 54 -4 15 16 27 98 16 109 -15 15 -64 5 -69 -15 -4 -14 -5 -14
-6 2 0 9 -6 17 -12 17 -6 0 -9 -9 -6 -20 3 -11 1 -20 -3 -20 -12 0 -24 65 -16
85 4 13 9 13 25 3 11 -7 17 -16 14 -20 -2 -5 -11 -4 -19 3 -11 9 -14 7 -14
-10 0 -17 3 -20 18 -13 9 5 29 8 44 6 23 -2 27 0 19 14 -6 12 -3 22 14 36 20
17 22 26 17 84 l-5 64 40 -43 40 -43 26 26 c14 14 30 28 36 29 10 4 14 22 12
52 -1 14 -7 16 -28 12 -23 -5 -25 -4 -10 5 18 11 24 40 8 40 -5 0 -11 -7 -14
-14 -5 -12 -21 -14 -72 -11 -37 2 -73 9 -81 16 -17 14 -19 -2 -2 -19 7 -7 9
-12 6 -12 -4 0 -21 20 -39 45 -35 48 -60 56 -81 26 -7 -10 -17 -19 -23 -20 -5
-1 -10 -9 -10 -18 0 -10 -9 -19 -20 -21 -20 -4 -20 -3 -1 11 18 13 17 14 -11
10 -47 -7 -101 21 -118 62 -17 40 -31 45 -41 13z"/>
<path d="M481 656 c-16 -20 13 -92 104 -256 41 -74 77 -139 79 -145 2 -5 6 -7
10 -3 4 3 -2 25 -14 48 -12 23 -35 94 -51 157 -32 125 -59 187 -88 203 -25 13
-26 13 -40 -4z"/>
</g>
</svg>
